<?xml version="1.0" encoding="utf-8"?>
<!-- Generator: Adobe Illustrator 24.1.2, SVG Export Plug-In . SVG Version: 6.00 Build 0)  -->
<svg version="1.1" xmlns="http://www.w3.org/2000/svg" xmlns:xlink="http://www.w3.org/1999/xlink" x="0px" y="0px"
	 viewBox="0 0 665.83 273.47" style="enable-background:new 0 0 665.83 273.47;" xml:space="preserve">
<style type="text/css">
	.st0{fill:url(#SVGID_1_);}
	.st1{fill:#379A58;}
	.st2{fill:#C7E3B9;}
	.st3{fill:#ABD698;}
	.st4{fill:url(#SVGID_2_);}
	.st5{fill:#6DCFF6;}
	.st6{fill:#00496E;}
	.st7{fill:url(#SVGID_3_);}
	.st8{fill:#A23958;}
	.st9{fill:#F48594;}
	.st10{fill:url(#SVGID_4_);}
	.st11{fill:url(#SVGID_5_);}
	.st12{fill:url(#SVGID_6_);}
</style>
<g id="Layer_1">
	<g>
		<path d="M94.71,98.65H80.1v117.08c0,12.98-5.08,31.24-28.39,31.24s-26.18-21.64-26.18-21.64l-14.37,2.65
			c0,0,3.43,32.12,42.16,32.12c44.62,0,41.39-44.37,41.39-44.37V98.65z"/>
		<g>
			<g>
				<path d="M176.99,173.32c-0.02,0-0.02-0.03,0-0.04c28.68-8.07,29.04-27.07,27.7-40.48c-3.54-36.36-47.34-34.15-47.34-34.15H124v0
					h-14.61v0h0v13.36h0v54.8h0v13.36h0v62.6h0v13.36h50.88c39.03-1.26,50.9-19.85,51.51-44.37
					C212.6,176.83,179.22,173.5,176.99,173.32z M124,112.01h34.09c0,0,32.46-1.29,32.46,26.65s-30.12,28.15-32.81,28.15H124V112.01z
					 M160.27,242.76H124v-62.6h33.73c0,0,39.52-2.21,39.52,31.71C197.26,245.79,160.27,242.76,160.27,242.76z"/>
			</g>
		</g>
		<path d="M345.04,222.29c-23.3,33.54-68.49,27.59-87.44,11.71c-27.95-20.68-26.04-55.41-26.04-55.41s-2.49-34.05,22.78-55.48
			c18.96-15.88,62.59-26.06,86.63,5.91l11.17-9.41c0,0-13.68-24.83-54.69-24.83c-41,0-80.64,28.52-80.64,83.81
			c1.72,54.64,39.99,81.81,80.99,81.45c43.08-0.38,58.4-28.34,58.4-28.34L345.04,222.29z"/>
		<g>
			<path d="M428.63,255.3h-31.39v-52.09h4.99v48.52h26.4V255.3z"/>
			<path d="M439.82,211.03c-2.17,0-3.7-1.58-3.7-3.43c0-1.78,1.61-3.36,3.78-3.36c2.25,0,3.7,1.51,3.7,3.36
				C443.6,209.66,442,211.03,439.82,211.03z M442.32,255.3h-4.99v-37.13h4.99V255.3z"/>
			<path d="M515.8,255.3h-4.91v-21.62c0-7.89-3.54-12.84-10.78-12.84c-6.28,0-11.51,5.15-11.51,10.77v23.68h-4.91v-23.2
				c0-6.45-3.46-11.25-10.22-11.25c-6.2,0-12.07,5.22-12.07,11.6v22.85h-4.91v-28.07c0-3.57-0.16-6.17-0.32-9.06h4.51l0.32,6.38
				h0.16c2.66-4.05,6.76-7.27,13.84-7.27c5.88,0,10.3,3.29,12.15,7.89h0.16c2.25-3.84,6.44-7.89,14.49-7.89c4.59,0,14,2.33,14,15.92
				V255.3z"/>
			<path d="M531.92,211.03c-2.17,0-3.7-1.58-3.7-3.43c0-1.78,1.61-3.36,3.78-3.36c2.25,0,3.7,1.51,3.7,3.36
				C535.7,209.66,534.1,211.03,531.92,211.03z M534.42,255.3h-4.99v-37.13h4.99V255.3z"/>
			<path d="M550.27,211.38l4.91-1.51v8.3h11.91v3.36h-11.91v23.4c0,4.73,1.69,7.62,6.2,7.62c2.17,0,3.62-0.27,4.75-0.62l0.48,3.29
				c-1.37,0.48-3.38,0.82-6.04,0.82c-9.02,0-10.3-6.04-10.3-11.67v-22.85h-7.08v-3.36h7.08V211.38z"/>
			<path d="M606.7,253.72c-1.93,0.89-6.36,2.33-13.52,2.33c-12.56,0-20.2-7.75-20.2-18.67c0-12.15,8.05-20.11,19.31-20.11
				c13.85,0,16.74,11.12,16.82,16.88c0,1.03-0.08,1.65-0.16,2.47h-31.07c0,11.53,7.4,15.99,15.94,15.99c5.96,0,9.17-1.03,11.67-2.06
				L606.7,253.72z M604.04,233.34c0.08-5.28-2.49-12.63-12.23-12.63c-9.02,0-12.96,7.07-13.68,12.63H604.04z"/>
			<path d="M654.28,246.51c0,2.81,0.16,6.25,0.4,8.78h-4.51l-0.32-6.79h-0.24c-2.17,4.05-7.24,7.62-14.97,7.62
				c-10.46,0-18.35-7.48-18.35-18.8c0-12.42,8.77-20.04,19.23-20.04c7,0,11.59,3.09,13.6,6.31h0.16v-23.06h4.99V246.51z
				 M649.29,232.92c0-7.62-6.44-12.15-13.28-12.15c-9.01,0-14.65,7-14.65,16.27c0,8.16,4.67,15.58,14.41,15.58
				c9.02,0,13.52-7.14,13.52-12.29V232.92z"/>
		</g>
		<g>
			<linearGradient id="SVGID_1_" gradientUnits="userSpaceOnUse" x1="282.932" y1="56.3205" x2="309.7693" y2="61.3705">
				<stop  offset="0" style="stop-color:#C2DE9A"/>
				<stop  offset="0.2291" style="stop-color:#AFCE8D"/>
				<stop  offset="0.6859" style="stop-color:#82AF72"/>
				<stop  offset="1" style="stop-color:#619D5E"/>
			</linearGradient>
			<path class="st0" d="M287.02,42.62c-5.36,4.44-2.33,22.07,14.48,33.34c24.7,15.49,57.47,15.26,61.43,15.18l-52.25-52
				C302.34,37.91,292.12,38.4,287.02,42.62z"/>
			<path class="st1" d="M287.84,43.23c-5.34,4.73-1.09,21.75,15.54,32.88c24.43,15.3,55.63,15.12,59.55,15.04l-51.47-51.47
				C303.2,38.46,292.86,38.77,287.84,43.23z"/>
			<path class="st2" d="M313.79,15.9c4.73-5.34,22.36-1.51,33.65,15.28c15.53,24.66,15.55,56.02,15.49,59.96l-52.25-52
				C309.41,30.84,309.34,20.92,313.79,15.9z"/>
			<path class="st3" d="M315.01,16.05c4.73-5.34,21.75-1.09,32.88,15.54c15.3,24.43,15.12,55.63,15.04,59.55l-51.47-51.47
				C310.24,31.42,310.56,21.07,315.01,16.05z"/>
			<linearGradient id="SVGID_2_" gradientUnits="userSpaceOnUse" x1="369.1595" y1="38.5508" x2="377.8467" y2="45.935">
				<stop  offset="0" style="stop-color:#B7E5FA"/>
				<stop  offset="0.1682" style="stop-color:#9ECFEC"/>
				<stop  offset="0.5055" style="stop-color:#68A9D2"/>
				<stop  offset="0.9771" style="stop-color:#007BAE"/>
				<stop  offset="1" style="stop-color:#0079AC"/>
			</linearGradient>
			<path class="st4" d="M409.96,15.37c-6.33-4.88-21.93-1.27-33.01,15.47c-15.21,24.61-14.13,56.32-13.99,60.31l51.58-51.58
				C415.66,31.2,415.43,19.59,409.96,15.37z"/>
			<g>
				<path class="st5" d="M438.05,43.23c5.34,4.73,1.09,21.75-15.54,32.88c-24.43,15.3-55.63,15.12-59.55,15.04l51.47-51.47
					C422.69,38.46,433.03,38.77,438.05,43.23z"/>
				<path class="st6" d="M410.88,16.05c-4.73-5.34-21.75-1.09-32.88,15.54c-15.3,24.43-15.12,55.63-15.04,59.55l51.47-51.47
					C415.64,31.42,415.33,21.07,410.88,16.05z"/>
			</g>
			<linearGradient id="SVGID_3_" gradientUnits="userSpaceOnUse" x1="360.7374" y1="114.0843" x2="405.1039" y2="153.2312">
				<stop  offset="0" style="stop-color:#F8BBD6"/>
				<stop  offset="0.1857" style="stop-color:#E5A3C1"/>
				<stop  offset="0.558" style="stop-color:#BE7095"/>
				<stop  offset="1" style="stop-color:#8E3461"/>
			</linearGradient>
			<path class="st7" d="M410.88,166.27c-4.73,5.34-23.25,1.25-34.38-15.38c-15.3-24.43-13.62-55.78-13.54-59.71l51.47,51.47
				C415.64,150.9,415.33,161.25,410.88,166.27z"/>
			<g>
				<path class="st8" d="M410.88,166.27c-4.73,5.34-21.75,1.09-32.88-15.54c-15.3-24.43-15.12-55.63-15.04-59.55l51.47,51.47
					C415.64,150.9,415.33,161.25,410.88,166.27z"/>
				<path class="st9" d="M438.05,139.09c5.34-4.73,1.09-21.75-15.54-32.88c-24.43-15.3-55.63-15.12-59.55-15.04l51.47,51.47
					C422.69,143.86,433.03,143.55,438.05,139.09z"/>
			</g>
		</g>
	</g>
</g>
<g id="Crop_Mark">
	<g>
		<path d="M1218.23,70.86h-17.08v136.87c0,15.17-5.94,36.52-33.19,36.52s-30.61-25.3-30.61-25.3l-16.79,3.1
			c0,0,4.02,37.55,49.28,37.55c52.16,0,48.39-51.87,48.39-51.87V70.86z"/>
		<g>
			<g>
				<path d="M1314.43,158.15c-0.03,0-0.03-0.04,0-0.05c33.53-9.44,33.96-31.65,32.39-47.32c-4.14-42.51-55.35-39.92-55.35-39.92
					h-38.99v0h-17.08v0h0v15.62h0v64.06h0v15.62h0v73.19h0v15.62h59.48c45.63-1.48,59.5-23.2,60.21-51.88
					C1356.06,162.25,1317.03,158.36,1314.43,158.15z M1252.48,86.47h39.85c0,0,37.94-1.51,37.94,31.16
					c0,32.67-35.21,32.91-38.36,32.91h-39.44V86.47z M1294.88,239.33h-42.4v-73.19h39.44c0,0,46.2-2.59,46.2,37.07
					C1338.12,242.87,1294.88,239.33,1294.88,239.33z"/>
			</g>
		</g>
		<path d="M1510.89,215.4c-27.24,39.21-80.06,32.25-102.22,13.69c-32.68-24.17-30.44-64.78-30.44-64.78s-2.91-39.81,26.64-64.86
			c22.16-18.56,73.18-30.47,101.28,6.91l13.05-11c0,0-16-29.02-63.93-29.02c-47.93,0-94.27,33.35-94.27,97.98
			c2.01,63.88,46.75,95.64,94.68,95.22c50.36-0.45,68.27-33.13,68.27-33.13L1510.89,215.4z"/>
		<g>
			<path d="M1366.22,302.97v-30.35h17.54v2.08h-14.63v11.72h13.46v2.08h-13.46v14.48H1366.22z"/>
			<path d="M1411.72,291.94c0,8.08-6.33,11.52-11.91,11.52c-6.52,0-11.54-4.24-11.54-11.12c0-7.44,5.58-11.52,11.86-11.52
				C1407.12,280.82,1411.72,285.38,1411.72,291.94z M1400.04,282.82c-6.15,0-8.82,4.88-8.82,9.4c0,5.16,3.71,9.24,8.68,9.24
				c5.07,0,8.86-4.08,8.86-9.4C1408.76,288.1,1406.28,282.82,1400.04,282.82z"/>
			<path d="M1439.4,291.94c0,8.08-6.33,11.52-11.91,11.52c-6.52,0-11.54-4.24-11.54-11.12c0-7.44,5.58-11.52,11.86-11.52
				C1434.8,280.82,1439.4,285.38,1439.4,291.94z M1427.72,282.82c-6.15,0-8.82,4.88-8.82,9.4c0,5.16,3.71,9.24,8.68,9.24
				c5.07,0,8.86-4.08,8.86-9.4C1436.44,288.1,1433.96,282.82,1427.72,282.82z"/>
			<path d="M1465.76,297.86c0,1.64,0.09,3.64,0.23,5.12h-2.63l-0.19-3.96h-0.14c-1.27,2.36-4.22,4.44-8.72,4.44
				c-6.1,0-10.69-4.36-10.69-10.96c0-7.24,5.11-11.68,11.21-11.68c4.08,0,6.75,1.8,7.93,3.68h0.09v-13.44h2.91V297.86z
				 M1462.85,289.94c0-4.44-3.75-7.08-7.74-7.08c-5.25,0-8.54,4.08-8.54,9.48c0,4.76,2.72,9.08,8.4,9.08c5.25,0,7.88-4.16,7.88-7.16
				V289.94z"/>
			<path d="M1485.23,284.14c-0.89-0.52-2.53-1.32-4.92-1.32c-3.1,0-4.74,1.68-4.74,3.6c0,2.16,1.64,3.08,5.02,4.32
				c4.08,1.4,6.52,3.16,6.52,6.4c0,3.96-3.57,6.28-8.63,6.28c-2.48,0-4.78-0.6-6.47-1.48l0.99-2c1.31,0.68,3.38,1.48,5.63,1.48
				c3.8,0,5.63-1.76,5.63-3.96c0-2.24-1.55-3.48-5.11-4.72c-4.13-1.4-6.43-3.36-6.43-5.96c0-3.2,3-5.96,7.93-5.96
				c2.35,0,4.32,0.6,5.68,1.36L1485.23,284.14z"/>
			<path d="M1523.09,302.97h-18.29v-30.35h2.91v28.27h15.38V302.97z"/>
			<path d="M1529.61,277.18c-1.27,0-2.16-0.92-2.16-2c0-1.04,0.94-1.96,2.2-1.96c1.31,0,2.16,0.88,2.16,1.96
				C1531.82,276.38,1530.88,277.18,1529.61,277.18z M1531.07,302.97h-2.91v-21.63h2.91V302.97z"/>
			<path d="M1573.89,302.97h-2.86v-12.6c0-4.6-2.06-7.48-6.28-7.48c-3.66,0-6.71,3-6.71,6.28v13.8h-2.86v-13.52
				c0-3.76-2.02-6.56-5.96-6.56c-3.61,0-7.04,3.04-7.04,6.76v13.32h-2.86v-16.36c0-2.08-0.09-3.6-0.19-5.28h2.63l0.19,3.72h0.09
				c1.55-2.36,3.94-4.24,8.07-4.24c3.42,0,6,1.92,7.08,4.6h0.09c1.31-2.24,3.75-4.6,8.44-4.6c2.67,0,8.16,1.36,8.16,9.28V302.97z"/>
			<path d="M1583.28,277.18c-1.27,0-2.16-0.92-2.16-2c0-1.04,0.94-1.96,2.2-1.96c1.31,0,2.16,0.88,2.16,1.96
				C1585.49,276.38,1584.55,277.18,1583.28,277.18z M1584.74,302.97h-2.91v-21.63h2.91V302.97z"/>
			<path d="M1593.98,277.38l2.86-0.88v4.84h6.94v1.96h-6.94v13.64c0,2.76,0.99,4.44,3.61,4.44c1.27,0,2.11-0.16,2.77-0.36l0.28,1.92
				c-0.8,0.28-1.97,0.48-3.52,0.48c-5.25,0-6-3.52-6-6.8V283.3h-4.13v-1.96h4.13V277.38z"/>
			<path d="M1626.86,302.06c-1.12,0.52-3.71,1.36-7.88,1.36c-7.32,0-11.77-4.52-11.77-10.88c0-7.08,4.69-11.72,11.26-11.72
				c8.07,0,9.76,6.48,9.8,9.84c0,0.6-0.05,0.96-0.09,1.44h-18.1c0,6.72,4.32,9.32,9.29,9.32c3.47,0,5.35-0.6,6.8-1.2L1626.86,302.06
				z M1625.31,290.18c0.05-3.08-1.45-7.36-7.13-7.36c-5.25,0-7.55,4.12-7.97,7.36H1625.31z"/>
			<path d="M1654.58,297.86c0,1.64,0.09,3.64,0.23,5.12h-2.63l-0.19-3.96h-0.14c-1.27,2.36-4.22,4.44-8.72,4.44
				c-6.1,0-10.69-4.36-10.69-10.96c0-7.24,5.11-11.68,11.21-11.68c4.08,0,6.75,1.8,7.93,3.68h0.09v-13.44h2.91V297.86z
				 M1651.68,289.94c0-4.44-3.75-7.08-7.74-7.08c-5.25,0-8.54,4.08-8.54,9.48c0,4.76,2.72,9.08,8.4,9.08c5.25,0,7.88-4.16,7.88-7.16
				V289.94z"/>
		</g>
		<g>
			<linearGradient id="SVGID_4_" gradientUnits="userSpaceOnUse" x1="1438.282" y1="21.3694" x2="1469.6566" y2="27.2732">
				<stop  offset="0" style="stop-color:#C2DE9A"/>
				<stop  offset="0.2291" style="stop-color:#AFCE8D"/>
				<stop  offset="0.6859" style="stop-color:#82AF72"/>
				<stop  offset="1" style="stop-color:#619D5E"/>
			</linearGradient>
			<path class="st10" d="M1443.06,5.35c-6.27,5.19-2.73,25.8,16.93,38.98c28.87,18.11,67.19,17.84,71.82,17.75l-61.09-60.79
				C1460.97-0.16,1449.03,0.42,1443.06,5.35z"/>
			<path class="st1" d="M1444.02,6.06c-6.24,5.53-1.27,25.42,18.17,38.44c28.56,17.88,65.03,17.68,69.62,17.58l-60.17-60.17
				C1461.98,0.49,1449.88,0.86,1444.02,6.06z"/>
			<path class="st2" d="M1474.36-25.88c5.53-6.24,26.14-1.77,39.34,17.86c18.16,28.83,18.18,65.49,18.1,70.1l-61.09-60.79
				C1469.23-8.42,1469.16-20.01,1474.36-25.88z"/>
			<path class="st3" d="M1475.78-25.7c5.53-6.24,25.42-1.27,38.44,18.17c17.88,28.56,17.68,65.03,17.58,69.62l-60.17-60.17
				C1470.21-7.75,1470.58-19.84,1475.78-25.7z"/>
			<linearGradient id="SVGID_5_" gradientUnits="userSpaceOnUse" x1="1539.0876" y1="0.5954" x2="1549.2437" y2="9.228">
				<stop  offset="0" style="stop-color:#B7E5FA"/>
				<stop  offset="0.1682" style="stop-color:#9ECFEC"/>
				<stop  offset="0.5055" style="stop-color:#68A9D2"/>
				<stop  offset="0.9771" style="stop-color:#007BAE"/>
				<stop  offset="1" style="stop-color:#0079AC"/>
			</linearGradient>
			<path class="st11" d="M1586.78-26.5c-7.4-5.7-25.63-1.49-38.59,18.08c-17.78,28.77-16.52,65.84-16.35,70.5l60.3-60.3
				C1593.45-8,1593.18-21.57,1586.78-26.5z"/>
			<g>
				<path class="st5" d="M1619.62,6.06c6.24,5.53,1.27,25.42-18.17,38.44c-28.56,17.88-65.03,17.68-69.62,17.58l60.17-60.17
					C1601.66,0.49,1613.76,0.86,1619.62,6.06z"/>
				<path class="st6" d="M1587.86-25.7c-5.53-6.24-25.42-1.27-38.44,18.17c-17.88,28.56-17.68,65.03-17.58,69.62l60.17-60.17
					C1593.43-7.75,1593.06-19.84,1587.86-25.7z"/>
			</g>
			<linearGradient id="SVGID_6_" gradientUnits="userSpaceOnUse" x1="1529.2417" y1="88.8991" x2="1581.109" y2="134.6644">
				<stop  offset="0" style="stop-color:#F8BBD6"/>
				<stop  offset="0.1857" style="stop-color:#E5A3C1"/>
				<stop  offset="0.558" style="stop-color:#BE7095"/>
				<stop  offset="1" style="stop-color:#8E3461"/>
			</linearGradient>
			<path class="st12" d="M1587.86,149.9c-5.53,6.24-27.18,1.46-40.2-17.99c-17.88-28.56-15.92-65.22-15.82-69.8l60.17,60.17
				C1593.43,131.94,1593.06,144.04,1587.86,149.9z"/>
			<g>
				<path class="st8" d="M1587.86,149.9c-5.53,6.24-25.42,1.27-38.44-18.17c-17.88-28.56-17.68-65.03-17.58-69.62l60.17,60.17
					C1593.43,131.94,1593.06,144.04,1587.86,149.9z"/>
				<path class="st9" d="M1619.62,118.14c6.24-5.53,1.27-25.42-18.17-38.44c-28.56-17.88-65.03-17.68-69.62-17.58l60.17,60.17
					C1601.66,123.71,1613.76,123.34,1619.62,118.14z"/>
			</g>
		</g>
	</g>
</g>
</svg>
