<?xml version="1.0" encoding="UTF-8"?>
<svg width="16px" height="16px" viewBox="0 0 16 16" version="1.1" xmlns="http://www.w3.org/2000/svg" xmlns:xlink="http://www.w3.org/1999/xlink">
    <title>favicon</title>
    <defs>
        <linearGradient x1="-2.13145087%" y1="42.6839863%" x2="32.1292349%" y2="47.0135306%" id="linearGradient-1">
            <stop stop-color="#C2DE9A" offset="0%"></stop>
            <stop stop-color="#AFCE8D" offset="22.91%"></stop>
            <stop stop-color="#82AF72" offset="68.59%"></stop>
            <stop stop-color="#619D5E" offset="100%"></stop>
        </linearGradient>
        <linearGradient x1="32.8951996%" y1="32.3769643%" x2="40.390791%" y2="41.8714168%" id="linearGradient-2">
            <stop stop-color="#B7E5FA" offset="0%"></stop>
            <stop stop-color="#9ECFEC" offset="16.82%"></stop>
            <stop stop-color="#68A9D2" offset="50.55%"></stop>
            <stop stop-color="#007BAE" offset="97.71%"></stop>
            <stop stop-color="#0079AC" offset="100%"></stop>
        </linearGradient>
        <linearGradient x1="25.3605092%" y1="29.6462527%" x2="64.1043807%" y2="80.2925847%" id="linearGradient-3">
            <stop stop-color="#F8BBD6" offset="0%"></stop>
            <stop stop-color="#E5A3C1" offset="18.57%"></stop>
            <stop stop-color="#BE7095" offset="55.8%"></stop>
            <stop stop-color="#8E3461" offset="100%"></stop>
        </linearGradient>
    </defs>
    <g id="Page-1" stroke="none" stroke-width="1" fill="none" fill-rule="evenodd">
        <g id="favicon" fill-rule="nonzero">
            <g id="Group">
                <path d="M0.267540984,3.00327869 C-0.280655738,3.45704918 0.028852459,5.25901639 1.74775956,6.41136612 C4.27191257,7.9947541 7.62229508,7.97114754 8.02710383,7.96327869 L2.68590164,2.64830601 C1.83344262,2.52153005 0.789508197,2.57224044 0.267540984,3.00327869 Z" id="Path" fill="url(#linearGradient-1)"></path>
                <path d="M0.35147541,3.06535519 C-0.194098361,3.54885246 0.240437158,5.28786885 1.94010929,6.42622951 C4.43715847,7.9895082 7.62579235,7.97202186 8.02710383,7.96327869 L2.7663388,2.70251366 C1.92174863,2.57836066 0.863825137,2.61071038 0.35147541,3.06535519 Z" id="Path" fill="#379A58"></path>
                <path d="M3.00415301,0.272786885 C3.48765027,-0.272786885 5.28961749,0.118032787 6.44371585,1.83431694 C8.03147541,4.35497268 8.03322404,7.56021858 8.02622951,7.96327869 L2.68502732,2.64830601 C2.55562842,1.79934426 2.5495082,0.786010929 3.00415301,0.272786885 Z" id="Path" fill="#C7E3B9"></path>
                <path d="M3.12830601,0.28852459 C3.61180328,-0.25704918 5.35081967,0.177486339 6.48918033,1.87715847 C8.05245902,4.37420765 8.03497268,7.56284153 8.02622951,7.96415301 L2.76546448,2.70338798 C2.64131148,1.8579235 2.6736612,0.800874317 3.12830601,0.28852459 Z" id="Path" fill="#ABD698"></path>
                <path d="M12.833224,0.218579235 C12.1862295,-0.279781421 10.5923497,0.0883060109 9.45923497,1.79934426 C7.90469945,4.3147541 8.01486339,7.55584699 8.02972678,7.96327869 L13.3018579,2.69114754 C13.4163934,1.83606557 13.3927869,0.649617486 12.833224,0.218579235 Z" id="Path" fill="url(#linearGradient-2)"></path>
                <g transform="translate(7.956284, 0.000000)" id="Path">
                    <path d="M7.74819672,3.06535519 C8.29377049,3.54885246 7.85923497,5.28786885 6.15956284,6.42622951 C3.66251366,7.9895082 0.473879781,7.97202186 0.072568306,7.96327869 L5.33333333,2.70251366 C6.1779235,2.57836066 7.23584699,2.61071038 7.74819672,3.06535519 Z" fill="#6DCFF6"></path>
                    <path d="M4.94309175,0.221968799 C4.45959448,-0.323604971 2.72057809,0.110930548 1.58221743,1.81060268 C0.0189387461,4.30765186 0.0364250849,7.49628574 0.0451682543,7.89759721 L5.30593328,2.63683219 C5.43008629,1.79136771 5.39773656,0.734318526 4.94309175,0.221968799 Z" fill="#00496E"></path>
                </g>
                <path d="M12.9276503,15.6415301 C12.444153,16.1871038 10.5512568,15.7691803 9.41289617,14.0686339 C7.84961749,11.5715847 8.02098361,8.3663388 8.02972678,7.96590164 L13.2904918,13.2266667 C13.4146448,14.0712568 13.3822951,15.1291803 12.9276503,15.6415301 Z" id="Path" fill="url(#linearGradient-3)"></path>
                <g transform="translate(7.956284, 7.956284)" id="Path">
                    <path d="M4.97136612,7.6852459 C4.48786885,8.23081967 2.74885246,7.79628415 1.6104918,6.09661202 C0.0472131148,3.59956284 0.0646994536,0.410928962 0.073442623,0.00961748634 L5.33420765,5.27038251 C5.45836066,6.11497268 5.42601093,7.17289617 4.97136612,7.6852459 Z" fill="#A23958"></path>
                    <path d="M7.74819672,4.9084153 C8.29377049,4.42491803 7.85923497,2.68590164 6.15956284,1.54754098 C3.66251366,-0.0157377049 0.473879781,0.00174863388 0.072568306,0.0104918033 L5.33333333,5.27125683 C6.1779235,5.39540984 7.23584699,5.36306011 7.74819672,4.9084153 Z" fill="#F48594"></path>
                </g>
            </g>
        </g>
    </g>
</svg>