<?xml version="1.0" encoding="UTF-8"?>
<svg width="166px" height="166px" viewBox="0 0 166 166" version="1.1" xmlns="http://www.w3.org/2000/svg" xmlns:xlink="http://www.w3.org/1999/xlink">
    <title>PPE</title>
    <g id="JBC-landing" stroke="none" stroke-width="1" fill="none" fill-rule="evenodd">
        <g id="JBC-official-website" transform="translate(-312.000000, -2901.000000)">
            <g id="Group-10" transform="translate(312.000000, 2901.000000)">
                <g id="JBC-ICONS_Logo-5" transform="translate(23.000000, 46.000000)">
                    <g id="Group-15">
                        <path d="M52.084157,40.2499213 L54.7411945,40.1343034 L56.073727,40.068236 C56.5152287,40.0434607 56.9808123,40.0021685 57.4383686,39.9691348 C59.2605666,39.7957079 61.0907918,39.3827865 62.8648259,38.7634045 C64.6308328,38.135764 66.380785,37.3264382 67.914,36.162 C66.1801024,36.8557079 64.4381775,37.3759888 62.6962526,37.7971685 C60.9543276,38.2018315 59.2043754,38.5156517 57.4544232,38.6725618 L54.7973857,38.8872809 C53.8983276,38.9781236 52.9992696,39.0689663 52.1002116,39.217618 C51.6506826,39.2836854 51.2011536,39.3580112 50.7516246,39.4405955 C50.3020956,39.5314382 49.8525666,39.6222809 49.4030375,39.721382 C48.5120068,39.9443596 47.6049215,40.1755955 46.746,40.572 C47.645058,40.4646404 48.5360887,40.4150899 49.4190922,40.3737978 C50.3101229,40.3325056 51.1931263,40.2994719 52.084157,40.2499213 L52.084157,40.2499213 Z" id="Path" fill="#A23958" fill-rule="nonzero"></path>
                        <path d="M52.9085653,44.6729088 C54.3798358,44.8431268 55.8434831,44.9376923 57.3147537,44.9755185 C58.8317632,45.0228013 60.31828,44.8053006 61.7895506,44.521604 C63.2531979,44.2189943 64.7168453,43.8407322 66.15,43.2733391 C64.65586,43.1787735 63.1845895,43.2260563 61.7133189,43.2638825 C60.2420484,43.3017087 56.2780035,43.3206218 57.703535,43.3395349 C58.0465774,43.3489915 54.6314002,43.2922522 52.9466811,43.358448 C51.4677874,43.4151874 49.9965169,43.5664922 48.51,43.8785584 C49.9736474,44.2757336 51.4449179,44.5026909 52.9085653,44.6729088 L52.9085653,44.6729088 Z" id="Path" fill="#A23958" fill-rule="nonzero"></path>
                        <path d="M32.2268719,23.0637153 C25.5575294,18.9432272 14.8881112,16.7197186 7.57630915,20.3581873 C0.601033565,23.8256168 -1.50225677,32.867367 1.03698829,39.8721966 C3.55328836,46.8303792 9.5495779,51.1219064 15.3317142,55.1413258 C21.450377,59.3939804 30.0241533,63.5455665 37.6189435,62.4415867 C38.0472499,62.3793906 38.0090082,61.6952341 37.6189435,61.60194 C34.1695473,60.7389699 30.6130746,60.6923229 27.1713267,59.6116666 C24.0661054,58.6398534 21.1214989,57.2326678 18.352804,55.5145021 C13.5649504,52.5524154 8.19582376,48.9528193 4.89939418,44.3192139 C0.21861714,37.7497565 -0.576809023,26.7566055 7.23213437,22.0374805 C11.2933968,19.5807367 16.3489419,20.0860796 20.8767524,20.3348638 C24.9533115,20.5603244 28.295631,21.6565297 31.8674004,23.6856757 C32.2727619,23.9189109 32.624585,23.3047249 32.2268719,23.0637153 L32.2268719,23.0637153 Z" id="Path" fill="#A23958" fill-rule="nonzero"></path>
                        <path d="M32.634,23.6812004 C32.634,23.6812004 78.7718599,-1.91236431 91.3941187,0.114310567 C104.024079,2.14098544 113.488847,8.50055143 113.488847,8.50055143 C113.488847,8.50055143 114.705636,20.7382511 118.101863,25.1487926 C121.49809,29.5593341 121.983266,37.145776 118.101863,45.2214154 C114.459198,55.9915229 110.331357,54.2832145 110.331357,54.2832145 C110.331357,54.2832145 103.531202,76.0719107 87.0198399,72.8882452 C70.5084776,69.7045797 46.7117847,62.6073351 38.2173665,62.3588539 C40.8896812,56.7369665 43.8084341,40.5779228 32.634,23.6812004 Z" id="Path" stroke="#A23958" stroke-width="1.764"></path>
                        <path d="M47.9038973,29.9652081 C62.4391228,22.562174 76.8126747,16.0552966 93.3187783,15.4318832 C93.5497406,15.4240906 93.5497406,15.0812132 93.3187783,15.0656278 C77.1283232,14.1383004 61.7000435,22.3907353 47.7191275,29.6457087 C47.5112614,29.7625987 47.6960312,30.0743054 47.9038973,29.9652081 L47.9038973,29.9652081 Z" id="Path" fill="#A23958" fill-rule="nonzero"></path>
                        <path d="M103.243004,16.8979495 C108.329134,18.3849162 113.116079,20.4895461 117.800673,22.8991947 C118.091984,23.0517042 118.351801,22.6323033 118.06049,22.4645429 C113.438883,19.8413811 108.462979,18.0493955 103.274497,16.760691 C103.195764,16.7378146 103.156398,16.8674476 103.243004,16.8979495 L103.243004,16.8979495 Z" id="Path" fill="#A23958" fill-rule="nonzero"></path>
                        <path d="M69.8103548,36.1573396 C77.8785896,34.1252373 86.0160465,32.3736864 94.3150221,31.5168671 C102.267886,30.6979602 110.013084,31.1680734 117.97364,31.2135683 C118.212072,31.2135683 118.281294,30.8344447 118.027479,30.7965323 C101.975615,28.3701415 85.1853799,31.7898361 69.7565153,35.9526129 C69.6180709,35.9905252 69.6796017,36.1952519 69.8103548,36.1573396 L69.8103548,36.1573396 Z" id="Path" fill="#A23958" fill-rule="nonzero"></path>
                        <path d="M74.1348447,53.8013224 C87.2214611,51.2407864 100.346795,50.5831145 113.60377,51.0040245 C113.836077,51.0127935 113.836077,50.6094214 113.60377,50.5918835 C100.393257,49.618529 87.1130512,50.9426418 74.1193576,53.7136328 C74.0651527,53.7311707 74.088,53.8100914 74.1348447,53.8013224 L74.1348447,53.8013224 Z" id="Path" fill="#A23958" fill-rule="nonzero"></path>
                        <path d="M48.7630784,59.0844889 C53.8850947,57.4441923 58.8750246,57.0960161 64.1878322,57.0573299 C64.4593431,57.0573299 64.4446669,56.654993 64.1878322,56.624044 C58.9997728,56.0205386 53.5915694,57.0341181 48.6530065,58.6666775 C48.40351,58.74405 48.5062438,59.1618614 48.7630784,59.0844889 L48.7630784,59.0844889 Z" id="Path" fill="#A23958" fill-rule="nonzero"></path>
                        <path d="M108.54784,11.7691465 C109.046042,12.1908608 109.387402,12.6878814 109.553469,13.260208 C109.710311,13.8024122 109.507339,14.2919021 109.599599,14.8190451 C109.627277,14.9847186 109.876378,15.0675553 110.005541,14.9094125 C110.393031,14.4349838 110.245416,13.6743918 110.070123,13.1472488 C109.857926,12.5222079 109.442758,11.972473 108.870748,11.5206362 C108.658551,11.3549627 108.354095,11.603473 108.54784,11.7691465 L108.54784,11.7691465 Z" id="Path" fill="#A23958" fill-rule="nonzero"></path>
                        <path d="M111.645147,12.491676 C111.527428,13.0804684 111.409709,13.6692609 111.291991,14.2580533 C111.189967,14.7677543 111.025161,15.1983637 111.229207,15.6904887 C111.315534,15.8926115 111.621604,15.9453392 111.74717,15.7695802 C112.05324,15.3389708 111.982608,14.8995735 111.990456,14.3722967 C111.998304,13.7659283 112.006152,13.15956 112.014,12.5531916 C112.006152,12.324705 111.684387,12.2631894 111.645147,12.491676 L111.645147,12.491676 Z" id="Path" fill="#A23958" fill-rule="nonzero"></path>
                        <path d="M84.8199208,65.8097606 C88.4361141,66.9401819 92.2305182,67.4260648 95.9135406,66.6625346 C96.2625367,66.5931227 96.1808568,65.7998446 95.8318607,65.8395085 C92.1117111,66.2559795 88.6068994,66.2857275 84.9313025,65.2742979 C84.6714118,65.204886 84.5600301,65.7304328 84.8199208,65.8097606 L84.8199208,65.8097606 Z" id="Path" fill="#A23958" fill-rule="nonzero"></path>
                        <path d="M88.2773307,68.3037767 C90.1815991,69.8122082 93.2854064,70.3528021 95.1821776,68.5043196 C95.3696056,68.3212152 95.1671834,67.9288486 94.9422698,68.0247604 C92.6481513,69.0449135 90.7063974,69.568069 88.4572616,67.9462871 C88.2623365,67.806779 88.0973999,68.1555493 88.2773307,68.3037767 L88.2773307,68.3037767 Z" id="Path" fill="#A23958" fill-rule="nonzero"></path>
                    </g>
                    <g id="Group" transform="translate(37.926000, 23.814000)" fill="#A23958" fill-rule="nonzero">
                        <path d="M1.390032,2.6162325 C1.347696,2.3692725 1.291248,2.1377475 1.19952,1.9216575 C1.114848,1.7055675 1.009008,1.4894775 0.874944,1.29654 C0.74088,1.1036025 0.585648,0.9183825 0.366912,0.7640325 C0.324576,1.04958 0.345744,1.3042575 0.381024,1.5512175 C0.42336,1.7981775 0.486864,2.021985 0.571536,2.2457925 C0.656208,2.4618825 0.762048,2.6779725 0.896112,2.87091 C1.030176,3.0638475 1.185408,3.2490675 1.397088,3.4034175 C1.44648,3.11787 1.425312,2.8631925 1.390032,2.6162325 L1.390032,2.6162325 Z" id="Path"></path>
                        <path d="M2.709504,5.77269 C2.667168,5.52573 2.603664,5.3019225 2.511936,5.078115 C2.427264,4.862025 2.314368,4.6536525 2.180304,4.4529975 C2.039184,4.26006 1.891008,4.07484 1.672272,3.9282075 C1.629936,4.213755 1.651104,4.4684325 1.686384,4.7153925 C1.72872,4.9623525 1.792224,5.18616 1.883952,5.4099675 C1.968624,5.6260575 2.08152,5.83443 2.215584,6.035085 C2.349648,6.2280225 2.50488,6.4132425 2.723616,6.5675925 C2.765952,6.2743275 2.744784,6.01965 2.709504,5.77269 L2.709504,5.77269 Z" id="Path"></path>
                        <path d="M3.887856,9.801225 C3.95136,9.5156775 3.944304,9.261 3.91608,9.01404 C3.887856,8.76708 3.831408,8.535555 3.760848,8.3117475 C3.683232,8.08794 3.584448,7.87185 3.464496,7.671195 C3.337488,7.47054 3.196368,7.2776025 2.984688,7.1078175 C2.92824,7.393365 2.935296,7.6480425 2.956464,7.8950025 C2.984688,8.1419625 3.041136,8.3734875 3.111696,8.597295 C3.189312,8.8211025 3.288096,9.0371925 3.408048,9.2378475 C3.535056,9.4385025 3.676176,9.63144 3.887856,9.801225 L3.887856,9.801225 Z" id="Path"></path>
                        <path d="M4.071312,10.4726475 C4.007808,10.758195 4.007808,11.0128725 4.028976,11.2598325 C4.050144,11.5067925 4.099536,11.7383175 4.170096,11.9698425 C4.240656,12.19365 4.332384,12.40974 4.452336,12.6181125 C4.572288,12.826485 4.713408,13.0194225 4.918032,13.1892075 C4.981536,12.90366 4.981536,12.6489825 4.967424,12.4020225 C4.946256,12.1550625 4.896864,11.91582 4.826304,11.6920125 C4.755744,11.468205 4.664016,11.2443975 4.544064,11.0437425 C4.417056,10.8430875 4.275936,10.6424325 4.071312,10.4726475 L4.071312,10.4726475 Z" id="Path"></path>
                        <path d="M5.04504,13.721715 C4.960368,13.999545 4.946256,14.2542225 4.946256,14.5011825 C4.953312,14.7481425 4.981536,14.987385 5.037984,15.21891 C5.094432,15.450435 5.172048,15.6742425 5.270832,15.8903325 C5.376672,16.1064225 5.50368,16.314795 5.694192,16.500015 C5.778864,16.222185 5.800032,15.9675075 5.800032,15.7205475 C5.792976,15.4735875 5.764752,15.234345 5.708304,15.00282 C5.651856,14.771295 5.57424,14.5474875 5.475456,14.3313975 C5.36256,14.1153075 5.235552,13.906935 5.04504,13.721715 L5.04504,13.721715 Z" id="Path"></path>
                        <path d="M5.800032,16.993935 C5.701248,17.2640475 5.68008,17.518725 5.665968,17.765685 C5.658912,18.012645 5.68008,18.2518875 5.722416,18.49113 C5.764752,18.722655 5.828256,18.95418 5.919984,19.1779875 C6.018768,19.401795 6.131664,19.617885 6.31512,19.8108225 C6.413904,19.54071 6.442128,19.2860325 6.45624,19.0390725 C6.463296,18.7921125 6.442128,18.55287 6.399792,18.3136275 C6.357456,18.0821025 6.293952,17.8505775 6.195168,17.62677 C6.10344,17.41068 5.990544,17.19459 5.800032,16.993935 L5.800032,16.993935 Z" id="Path"></path>
                        <path d="M6.336288,20.513115 C6.20928,20.77551 6.159888,21.02247 6.124608,21.26943 C6.096384,21.51639 6.089328,21.7556325 6.110496,21.994875 C6.131664,22.2341175 6.174,22.4656425 6.24456,22.6971675 C6.322176,22.9286925 6.413904,23.1525 6.576192,23.3763075 C6.7032,23.12163 6.752592,22.8669525 6.787872,22.6199925 C6.816096,22.3730325 6.823152,22.13379 6.801984,21.8945475 C6.780816,21.655305 6.73848,21.42378 6.66792,21.192255 C6.590304,20.96073 6.498576,20.729205 6.336288,20.513115 L6.336288,20.513115 Z" id="Path"></path>
                        <path d="M6.653808,23.877945 C6.512688,24.124905 6.449184,24.371865 6.392736,24.6111075 C6.343344,24.85035 6.329232,25.09731 6.329232,25.3365525 C6.336288,25.575795 6.364512,25.8150375 6.42096,26.0465625 C6.484464,26.285805 6.555024,26.51733 6.7032,26.748855 C6.84432,26.501895 6.91488,26.254935 6.964272,26.0156925 C7.013664,25.77645 7.027776,25.52949 7.027776,25.2902475 C7.02072,25.051005 6.992496,24.8117625 6.936048,24.5802375 C6.8796,24.340995 6.801984,24.1017525 6.653808,23.877945 L6.653808,23.877945 Z" id="Path"></path>
                        <path d="M6.689088,27.242775 C6.540912,27.4820175 6.463296,27.72126 6.399792,27.9605025 C6.343344,28.199745 6.31512,28.4389875 6.308064,28.67823 C6.301008,28.9174725 6.31512,29.156715 6.364512,29.3959575 C6.413904,29.6352 6.477408,29.8744425 6.618528,30.113685 C6.77376,29.8744425 6.851376,29.6352 6.91488,29.3959575 C6.971328,29.156715 7.006608,28.9174725 7.006608,28.67823 C7.013664,28.4389875 6.992496,28.199745 6.95016,27.9605025 C6.893712,27.72126 6.830208,27.4820175 6.689088,27.242775 L6.689088,27.242775 Z" id="Path"></path>
                        <path d="M5.96232,34.0110225 C5.771808,34.2116775 5.651856,34.435485 5.546016,34.651575 C5.447232,34.8753825 5.376672,35.09919 5.320224,35.3384325 C5.270832,35.5699575 5.242608,35.8092 5.242608,36.05616 C5.242608,36.30312 5.263776,36.55008 5.355504,36.812475 C5.546016,36.61182 5.673024,36.39573 5.778864,36.1719225 C5.877648,35.948115 5.955264,35.7243075 6.004656,35.485065 C6.054048,35.25354 6.082272,35.0142975 6.082272,34.7673375 C6.082272,34.5203775 6.061104,34.2734175 5.96232,34.0110225 L5.96232,34.0110225 Z" id="Path"></path>
                        <path d="M6.49152,30.6770625 C6.31512,30.90087 6.216336,31.1246775 6.124608,31.3562025 C6.046992,31.5877275 5.990544,31.8192525 5.955264,32.058495 C5.919984,32.2977375 5.912928,32.53698 5.934096,32.7762225 C5.955264,33.0231825 5.9976,33.262425 6.110496,33.5171025 C6.286896,33.3010125 6.392736,33.0694875 6.477408,32.8379625 C6.56208,32.6064375 6.618528,32.3749125 6.646752,32.13567 C6.682032,31.8964275 6.689088,31.657185 6.66792,31.4179425 C6.646752,31.1787 6.604416,30.93174 6.49152,30.6770625 L6.49152,30.6770625 Z" id="Path"></path>
                    </g>
                    <g id="Group-14" transform="translate(41.678862, 4.735987)" fill="#A23958" fill-rule="nonzero">
                        <path d="M1.55076923,18.4182768 C1.78338462,18.2940912 2.00824615,18.1466208 2.2176,17.9758656 C2.42695385,17.8051104 2.62855385,17.618832 2.79913846,17.3704608 C2.50449231,17.3782224 2.24086154,17.4403152 1.98498462,17.5179312 C1.72910769,17.6033088 1.48873846,17.7042096 1.25612308,17.8283952 C1.02350769,17.9525808 0.798646154,18.1000512 0.589292308,18.2630448 C0.379938462,18.4338 0.170584615,18.6123168 -3.35287353e-14,18.860688 C0.294646154,18.860688 0.558276923,18.7985952 0.814153846,18.7209792 C1.07003077,18.6511248 1.31815385,18.550224 1.55076923,18.4182768 L1.55076923,18.4182768 Z" id="Path"></path>
                        <path d="M6.08676923,16.144128 C6.32713846,16.0354656 6.55975385,15.9035184 6.78461538,15.7482864 C7.00172308,15.5930544 7.21883077,15.4145376 7.40492308,15.173928 C7.11027692,15.1584048 6.84664615,15.212736 6.58301538,15.2748288 C6.32713846,15.3446832 6.07901538,15.4300608 5.83864615,15.5464848 C5.59827692,15.6551472 5.36566154,15.7870944 5.14855385,15.9423264 C4.92369231,16.0975584 4.71433846,16.2683136 4.52049231,16.5011616 C4.81513846,16.5166848 5.07876923,16.4701152 5.3424,16.4080224 C5.59827692,16.3459296 5.8464,16.2527904 6.08676923,16.144128 L6.08676923,16.144128 Z" id="Path"></path>
                        <path d="M10.6770462,14.1105888 C10.9174154,13.9941648 11.1422769,13.854456 11.3593846,13.6914624 C11.5764923,13.5284688 11.7780923,13.3421904 11.9564308,13.0938192 C11.6617846,13.0938192 11.3981538,13.155912 11.1422769,13.2257664 C10.8864,13.3033824 10.6382769,13.4042832 10.4056615,13.5207072 C10.1730462,13.6371312 9.94043077,13.77684 9.72332308,13.9398336 C9.50621538,14.1028272 9.29686154,14.281344 9.11852308,14.5219536 C9.41316923,14.5297152 9.6768,14.475384 9.94043077,14.4055296 C10.1963077,14.3356752 10.4366769,14.2347744 10.6770462,14.1105888 L10.6770462,14.1105888 Z" id="Path"></path>
                        <path d="M14.3988923,12.302136 C14.6625231,12.2400432 14.9106462,12.146904 15.1510154,12.03048 C15.3913846,11.914056 15.624,11.7821088 15.8488615,11.6268768 C16.0659692,11.4638832 16.2830769,11.293128 16.4614154,11.0447568 C16.1667692,11.0447568 15.9031385,11.099088 15.6395077,11.1611808 C15.3836308,11.2310352 15.1355077,11.3241744 14.8951385,11.4405984 C14.6547692,11.5570224 14.4299077,11.6889696 14.2050462,11.83644 C13.9801846,11.991672 13.7708308,12.1624272 13.5769846,12.3952752 C13.8638769,12.4107984 14.1352615,12.3642288 14.3988923,12.302136 L14.3988923,12.302136 Z" id="Path"></path>
                        <path d="M18.7332923,10.3074048 C18.9969231,10.245312 19.2450462,10.1599344 19.4931692,10.051272 C19.7335385,9.9426096 19.9661538,9.8106624 20.1910154,9.663192 C20.4158769,9.50796 20.6329846,9.3372048 20.8268308,9.1043568 C20.5321846,9.0888336 20.2608,9.1276416 19.9971692,9.1897344 C19.7335385,9.2518272 19.4854154,9.3449664 19.2450462,9.4536288 C19.0046769,9.5622912 18.7643077,9.6942384 18.5472,9.8417088 C18.3223385,9.9969408 18.1052308,10.1599344 17.9113846,10.3927824 C18.1982769,10.4083056 18.4696615,10.3694976 18.7332923,10.3074048 L18.7332923,10.3074048 Z" id="Path"></path>
                        <path d="M23.0056615,8.5532832 C23.2692923,8.5067136 23.5251692,8.4290976 23.7732923,8.3359584 C24.0214154,8.2428192 24.2617846,8.1263952 24.4944,7.994448 C24.7270154,7.8547392 24.9518769,7.6995072 25.1612308,7.4821824 C24.8665846,7.4433744 24.5952,7.4744208 24.3315692,7.5132288 C24.0679385,7.5597984 23.8120615,7.6296528 23.5639385,7.7305536 C23.3158154,7.8236928 23.0754462,7.9401168 22.8428308,8.0798256 C22.6102154,8.2195344 22.3853538,8.382528 22.1837538,8.6076144 C22.4706462,8.6308992 22.7420308,8.5998528 23.0056615,8.5532832 L23.0056615,8.5532832 Z" id="Path"></path>
                        <path d="M27.4331077,6.4343664 C27.6889846,6.364512 27.9371077,6.2713728 28.1774769,6.1549488 C28.4178462,6.0462864 28.6504615,5.9143392 28.8675692,5.7591072 C29.0846769,5.5961136 29.3017846,5.43312 29.4956308,5.200272 C29.2009846,5.1847488 28.9296,5.2313184 28.6737231,5.2934112 C28.4178462,5.3632656 28.1619692,5.4564048 27.9216,5.5650672 C27.6812308,5.6737296 27.4486154,5.8134384 27.2315077,5.9686704 C27.0144,6.131664 26.7972923,6.3101808 26.6189538,6.5430288 C26.9136,6.5507904 27.1772308,6.5042208 27.4331077,6.4343664 L27.4331077,6.4343664 Z" id="Path"></path>
                        <path d="M32.6359385,4.2145488 C32.8840615,4.1214096 33.1166769,4.0049856 33.3492923,3.8575152 C33.5741538,3.7100448 33.8067692,3.5625744 34.0083692,3.337488 C33.7214769,3.29868 33.4423385,3.3219648 33.1787077,3.376296 C32.9150769,3.4306272 32.6592,3.5082432 32.4110769,3.6013824 C32.1629538,3.6945216 31.9225846,3.8264688 31.6977231,3.9661776 C31.4728615,4.113648 31.248,4.2766416 31.0541538,4.5094896 C31.3488,4.5250128 31.6124308,4.4939664 31.8760615,4.4396352 C32.1474462,4.385304 32.3955692,4.307688 32.6359385,4.2145488 L32.6359385,4.2145488 Z" id="Path"></path>
                        <path d="M37.2107077,2.6467056 C37.4588308,2.5768512 37.7069538,2.5147584 37.9473231,2.406096 C38.1876923,2.289672 38.4358154,2.1965328 38.6839385,2.018016 C38.4048,1.9248768 38.1334154,1.8860688 37.8620308,1.901592 C37.5906462,1.9171152 37.3192615,1.9481616 37.0633846,2.018016 C36.8075077,2.0878704 36.5516308,2.1810096 36.3112615,2.3051952 C36.0708923,2.4371424 35.8305231,2.5768512 35.6211692,2.7864144 C35.9080615,2.8407456 36.1794462,2.8252224 36.4430769,2.794176 C36.6989538,2.7631296 36.9548308,2.71656 37.2107077,2.6467056 L37.2107077,2.6467056 Z" id="Path"></path>
                        <path d="M41.7156923,1.55232 C41.9715692,1.4979888 42.2196923,1.4281344 42.4678154,1.3272336 C42.7159385,1.2263328 42.9640615,1.1099088 43.1966769,0.931392 C42.9175385,0.8460144 42.6539077,0.8227296 42.3825231,0.8227296 C42.1188923,0.8304912 41.8552615,0.8615376 41.5993846,0.9158688 C41.3435077,0.9702 41.0876308,1.0400544 40.8395077,1.1487168 C40.5913846,1.2573792 40.3510154,1.3893264 40.1184,1.5833664 C40.3975385,1.6532208 40.6689231,1.6609824 40.9325538,1.6532208 C41.2039385,1.6376976 41.4675692,1.6066512 41.7156923,1.55232 L41.7156923,1.55232 Z" id="Path"></path>
                        <path d="M46.4455385,0.7140672 C46.7014154,0.6752592 46.9572923,0.6131664 47.2131692,0.5277888 C47.4690462,0.4346496 47.7171692,0.3259872 47.9575385,0.155232 C47.6861538,0.0543312 47.4147692,0.0310464 47.1511385,0.0155232 C46.8875077,0.0077616 46.6238769,0.0232848 46.368,0.0620928 C46.1121231,0.1009008 45.8562462,0.1707552 45.6003692,0.2561328 C45.3444923,0.349272 45.0963692,0.4579344 44.856,0.6364512 C45.1273846,0.7295904 45.3987692,0.7528752 45.6624,0.7683984 C45.9260308,0.77616 46.1896615,0.7528752 46.4455385,0.7140672 L46.4455385,0.7140672 Z" id="Path"></path>
                        <path d="M50.9737846,0.7140672 C51.2296615,0.7451136 51.4932923,0.7528752 51.7646769,0.737352 C52.0360615,0.7140672 52.2996923,0.6830208 52.5865846,0.5743584 C52.3462154,0.4113648 52.0980923,0.310464 51.8499692,0.2250864 C51.6018462,0.1474704 51.3459692,0.0931392 51.0823385,0.0620928 C50.8264615,0.0310464 50.5628308,0.0232848 50.2914462,0.038808 C50.0278154,0.0620928 49.7564308,0.0931392 49.4695385,0.19404 C49.7099077,0.3647952 49.9580308,0.4579344 50.2061538,0.543312 C50.4542769,0.6286896 50.7101538,0.6830208 50.9737846,0.7140672 L50.9737846,0.7140672 Z" id="Path"></path>
                        <path d="M55.6416,1.5290352 C55.8974769,1.591128 56.1611077,1.6376976 56.4247385,1.6532208 C56.6883692,1.668744 56.9597538,1.668744 57.2544,1.5988896 C57.0372923,1.4048496 56.8046769,1.2729024 56.5643077,1.1564784 C56.3239385,1.047816 56.0758154,0.9624384 55.8276923,0.892584 C55.5795692,0.8304912 55.3159385,0.7916832 55.0523077,0.7683984 C54.7886769,0.7528752 54.5172923,0.7451136 54.2226462,0.8072064 C54.432,1.009008 54.6646154,1.1409552 54.9049846,1.2573792 C55.1298462,1.3815648 55.3857231,1.4669424 55.6416,1.5290352 L55.6416,1.5290352 Z" id="Path"></path>
                        <path d="M60.1155692,2.794176 C60.3636923,2.871792 60.6195692,2.9338848 60.8832,2.9649312 C61.1468308,2.9959776 61.4182154,3.0115008 61.7128615,2.9571696 C61.5035077,2.7476064 61.2786462,2.6078976 61.0460308,2.4759504 C60.8134154,2.3517648 60.5652923,2.250864 60.3171692,2.173248 C60.0690462,2.095632 59.8131692,2.0413008 59.5495385,2.0024928 C59.2859077,1.9714464 59.0145231,1.9559232 58.7198769,2.0102544 C58.9292308,2.2198176 59.1540923,2.3595264 59.3867077,2.4914736 C59.6193231,2.6156592 59.8674462,2.71656 60.1155692,2.794176 L60.1155692,2.794176 Z" id="Path"></path>
                        <path d="M64.0777846,4.2223104 C64.3259077,4.3154496 64.5740308,4.385304 64.8376615,4.4318736 C65.1012923,4.4784432 65.3726769,4.501728 65.6673231,4.4706816 C65.4734769,4.2533568 65.2486154,4.0981248 65.0237538,3.958416 C64.7988923,3.8187072 64.5585231,3.7100448 64.3104,3.6169056 C64.0622769,3.5237664 63.8141538,3.453912 63.5505231,3.4073424 C63.2868923,3.3607728 63.0155077,3.337488 62.7208615,3.3685344 C62.9147077,3.5858592 63.1395692,3.7410912 63.3644308,3.8808 C63.5892923,4.0205088 63.8296615,4.1291712 64.0777846,4.2223104 L64.0777846,4.2223104 Z" id="Path"></path>
                        <path d="M68.6137846,5.743584 C68.8541538,5.8444848 69.1100308,5.9221008 69.3659077,5.9686704 C69.6295385,6.01524 69.9009231,6.054048 70.1955692,6.0230016 C70.0017231,5.7979152 69.7923692,5.6349216 69.5675077,5.4952128 C69.3426462,5.355504 69.1100308,5.2313184 68.8696615,5.1381792 C68.6292923,5.0372784 68.3734154,4.967424 68.1175385,4.9130928 C67.8539077,4.8665232 67.5825231,4.8277152 67.2878769,4.8587616 C67.4817231,5.083848 67.6910769,5.23908 67.9159385,5.3865504 C68.1408,5.5340208 68.3734154,5.6504448 68.6137846,5.743584 L68.6137846,5.743584 Z" id="Path"></path>
                    </g>
                </g>
            </g>
            <path d="M359.91,3048.05 C360.23,3047.98 360.54,3047.91 360.86,3047.84 C360.49,3047.57 360.18,3047.7 359.86,3047.79 C359.87,3047.88 359.89,3047.96 359.91,3048.05 Z" id="Path" fill="#A23958" fill-rule="nonzero"></path>
        </g>
    </g>
</svg>